<?xml version="1.0" encoding="utf-8"?>
<!-- Generator: Adobe Illustrator 18.1.1, SVG Export Plug-In . SVG Version: 6.00 Build 0)  -->
<svg version="1.1" id="Layer_1" xmlns="http://www.w3.org/2000/svg" xmlns:xlink="http://www.w3.org/1999/xlink" x="0px" y="0px"
	 width="48px" height="80px" viewBox="-275 261 48 80" enable-background="new -275 261 48 80" xml:space="preserve">
<rect x="-275" y="261" fill="#00A7E2" width="48" height="80"/>
<path fill="#FFFFFF" d="M-251,304c-0.2,0-0.4-0.1-0.5-0.2l-4.8-4.7c-0.1-0.1-0.2-0.3-0.2-0.5c0-0.2,0.1-0.3,0.2-0.5
	c0.1-0.1,0.3-0.2,0.5-0.2h9.6c0.2,0,0.4,0.1,0.5,0.2c0.1,0.1,0.2,0.3,0.2,0.5c0,0.2-0.1,0.3-0.2,0.5l-4.8,4.7
	C-250.6,303.9-250.8,304-251,304z"/>
</svg>
